<?xml version="1.0" encoding="UTF-8"?>
<svg xmlns="http://www.w3.org/2000/svg" xmlns:xlink="http://www.w3.org/1999/xlink" width="70px" height="70px" viewBox="0 0 70 70" version="1.1">
<g id="surface1">
<path style=" stroke:none;fill-rule:nonzero;fill:rgb(100%,100%,100%);fill-opacity:1;" d="M 20.503906 0 L 0 20.503906 L 0 49.496094 L 20.503906 70 L 49.496094 70 L 70 49.496094 L 70 20.503906 L 49.496094 0 Z M 20.503906 0 "/>
<path style="fill:none;stroke-width:2;stroke-linecap:butt;stroke-linejoin:miter;stroke:rgb(0%,0%,0%);stroke-opacity:1;stroke-miterlimit:4;" d="M 1.015625 494.570312 L 1.015625 205.429688 L 205.429688 1.015625 L 494.570312 1.015625 L 698.984375 205.429688 L 698.984375 494.570312 L 494.570312 698.984375 L 205.429688 698.984375 Z M 1.015625 494.570312 " transform="matrix(0.1,0,0,0.1,0,0)"/>
<path style=" stroke:none;fill-rule:nonzero;fill:rgb(100%,0%,0%);fill-opacity:1;" d="M 21.332031 2 L 2 21.332031 L 2 48.667969 L 21.332031 68 L 48.667969 68 L 68 48.667969 L 68 21.332031 L 48.667969 2 Z M 12.597656 24.6875 C 14.105469 24.800781 15.40625 25.25 16.496094 26.039062 C 17.589844 26.824219 18.160156 27.273438 18.210938 27.386719 L 16.339844 29.84375 C 16.339844 29.761719 16.03125 29.433594 15.40625 28.859375 C 14.78125 28.285156 13.84375 27.960938 12.597656 27.878906 C 11.375 27.941406 10.546875 28.308594 10.101562 28.984375 C 9.660156 29.660156 9.453125 30.273438 9.476562 30.824219 C 9.515625 31.65625 9.957031 32.25 10.804688 32.609375 C 11.648438 32.96875 12.664062 33.277344 13.847656 33.527344 C 15.320312 33.902344 16.480469 34.566406 17.328125 35.523438 C 18.175781 36.480469 18.609375 37.695312 18.628906 39.175781 C 18.621094 40.503906 18.066406 41.835938 16.964844 43.164062 C 15.863281 44.496094 14.269531 45.210938 12.179688 45.3125 C 10.921875 45.269531 9.800781 44.972656 8.820312 44.421875 C 7.84375 43.871094 7.074219 43.316406 6.507812 42.765625 C 5.945312 42.214844 5.65625 41.917969 5.644531 41.875 L 7.695312 39.875 C 7.699219 39.96875 8.085938 40.34375 8.847656 41 C 9.609375 41.65625 10.71875 42.027344 12.179688 42.121094 C 13.503906 42.054688 14.394531 41.695312 14.859375 41.046875 C 15.324219 40.398438 15.539062 39.855469 15.507812 39.417969 C 15.539062 39.164062 15.527344 38.84375 15.46875 38.453125 C 15.410156 38.0625 15.121094 37.667969 14.597656 37.265625 C 14.074219 36.863281 13.128906 36.519531 11.765625 36.226562 C 9.457031 35.679688 7.992188 34.871094 7.371094 33.804688 C 6.753906 32.734375 6.484375 31.742188 6.566406 30.824219 C 6.597656 29.066406 7.160156 27.613281 8.257812 26.464844 C 9.351562 25.320312 10.796875 24.726562 12.597656 24.6875 Z M 41.773438 24.6875 C 44.363281 24.761719 46.289062 25.769531 47.554688 27.710938 C 48.820312 29.65625 49.449219 32.082031 49.445312 35 C 49.449219 37.917969 48.820312 40.34375 47.554688 42.289062 C 46.289062 44.230469 44.363281 45.238281 41.773438 45.3125 C 39.1875 45.238281 37.261719 44.230469 35.996094 42.289062 C 34.730469 40.34375 34.097656 37.917969 34.101562 35 C 34.097656 32.082031 34.730469 29.65625 35.996094 27.710938 C 37.261719 25.769531 39.1875 24.761719 41.773438 24.6875 Z M 20.117188 25.179688 L 33.203125 25.179688 L 33.203125 28.125 L 28.238281 28.125 L 28.238281 44.820312 L 25.082031 44.820312 L 25.082031 28.125 L 20.117188 28.125 Z M 51.933594 25.179688 L 58.566406 25.179688 C 60.992188 25.289062 62.707031 26.046875 63.722656 27.449219 C 64.734375 28.851562 65.226562 30.222656 65.195312 31.5625 C 65.167969 32.902344 64.550781 34.273438 63.351562 35.675781 C 62.15625 37.078125 60.5625 37.835938 58.566406 37.945312 L 55.371094 37.945312 L 55.371094 44.820312 L 51.933594 44.820312 Z M 41.773438 27.878906 C 40.457031 27.898438 39.386719 28.53125 38.566406 29.78125 C 37.746094 31.03125 37.324219 32.769531 37.300781 35 C 37.324219 37.230469 37.746094 38.96875 38.566406 40.21875 C 39.386719 41.46875 40.457031 42.101562 41.773438 42.121094 C 43.09375 42.101562 44.164062 41.46875 44.984375 40.21875 C 45.804688 38.96875 46.226562 37.230469 46.25 35 C 46.226562 32.769531 45.804688 31.03125 44.984375 29.78125 C 44.164062 28.53125 43.09375 27.898438 41.773438 27.878906 Z M 55.371094 28.125 L 55.371094 35 L 57.585938 35 C 58.609375 35.011719 59.507812 34.746094 60.285156 34.203125 C 61.0625 33.660156 61.472656 32.78125 61.511719 31.5625 C 61.472656 30.34375 61.0625 29.464844 60.285156 28.921875 C 59.507812 28.378906 58.609375 28.113281 57.585938 28.125 Z M 55.371094 28.125 "/>
</g>
</svg>
